# This file uses centimeters as units for non-parametric coordinates.

mtllib Plasmatic.mtl
g default
v 0.250000 -0.866025 -0.433013
v -0.250000 -0.866025 -0.433013
v -0.500000 -0.866025 -0.000000
v -0.250000 -0.866025 0.433013
v 0.250000 -0.866025 0.433013
v 0.500000 -0.866025 0.000000
v 0.433013 -0.500000 -0.750000
v -0.433013 -0.500000 -0.750000
v -0.866025 -0.500000 -0.000000
v -0.433013 -0.500000 0.750000
v 0.433013 -0.500000 0.750000
v 0.866025 -0.500000 0.000000
v 0.500000 0.000000 -0.866025
v -0.500000 0.000000 -0.866026
v -1.000000 0.000000 -0.000000
v -0.500000 0.000000 0.866025
v 0.500000 0.000000 0.866025
v 1.000000 0.000000 0.000000
v 0.433013 0.500000 -0.750000
v -0.433013 0.500000 -0.750000
v -0.866025 0.500000 -0.000000
v -0.433013 0.500000 0.750000
v 0.433013 0.500000 0.750000
v 0.866025 0.500000 0.000000
v 0.250000 0.866025 -0.433013
v -0.250000 0.866025 -0.433013
v -0.500000 0.866025 -0.000000
v -0.250000 0.866025 0.433013
v 0.250000 0.866025 0.433013
v 0.500000 0.866025 0.000000
v 0.000000 -1.000000 0.000000
v 0.000000 1.000000 0.000000
vt 0.113980 0.708822
vt 0.132242 0.621450
vt 0.212484 0.644465
vt 0.194782 0.771821
vt 0.125110 0.518200
vt 0.204087 0.523895
vt 0.112261 0.409830
vt 0.190630 0.407360
vt 0.099164 0.299937
vt 0.177587 0.289566
vt 0.084900 0.193362
vt 0.165852 0.165294
vt 0.057608 0.102725
vt 0.140877 0.027699
vt 0.297347 0.647760
vt 0.299087 0.797194
vt 0.286885 0.518840
vt 0.273219 0.398597
vt 0.259552 0.278354
vt 0.249090 0.149434
vt 0.247350 0.000000
vt 0.380586 0.631900
vt 0.405560 0.769496
vt 0.368851 0.507628
vt 0.355807 0.389834
vt 0.342350 0.273299
vt 0.333953 0.152729
vt 0.351656 0.025373
vt 0.461537 0.603832
vt 0.488829 0.694470
vt 0.447273 0.497257
vt 0.434176 0.387364
vt 0.421327 0.278994
vt 0.414196 0.175745
vt 0.432458 0.088372
vt 0.048940 0.642933
vt 0.051273 0.571558
vt 0.041878 0.473756
vt 0.029449 0.368231
vt 0.016690 0.264478
vt 0.000000 0.178327
vt 0.546437 0.618868
vt 0.529747 0.532716
vt 0.516988 0.428963
vt 0.504559 0.323438
vt 0.495165 0.225636
vt 0.497498 0.154261
vn 0.000000 -0.654654 -0.755929
vn 0.000000 -0.654654 -0.755929
vn 0.000000 -0.654654 -0.755929
vn 0.000000 -0.654654 -0.755929
vn -0.654654 -0.654654 -0.377964
vn -0.654654 -0.654654 -0.377964
vn -0.654654 -0.654654 -0.377964
vn -0.654654 -0.654654 -0.377964
vn -0.654654 -0.654654 0.377964
vn -0.654654 -0.654654 0.377964
vn -0.654654 -0.654654 0.377964
vn -0.654654 -0.654654 0.377964
vn 0.000000 -0.654654 0.755929
vn 0.000000 -0.654654 0.755929
vn 0.000000 -0.654654 0.755929
vn 0.000000 -0.654654 0.755929
vn 0.654654 -0.654654 0.377964
vn 0.654654 -0.654654 0.377964
vn 0.654654 -0.654654 0.377964
vn 0.654654 -0.654654 0.377964
vn 0.654654 -0.654654 -0.377964
vn 0.654654 -0.654654 -0.377964
vn 0.654654 -0.654654 -0.377964
vn 0.654654 -0.654654 -0.377964
vn 0.000000 -0.226045 -0.974117
vn 0.000000 -0.226045 -0.974117
vn 0.000000 -0.226045 -0.974117
vn 0.000000 -0.226045 -0.974117
vn -0.843610 -0.226045 -0.487059
vn -0.843610 -0.226045 -0.487059
vn -0.843610 -0.226045 -0.487059
vn -0.843610 -0.226045 -0.487059
vn -0.843610 -0.226045 0.487058
vn -0.843610 -0.226045 0.487058
vn -0.843610 -0.226045 0.487058
vn -0.843610 -0.226045 0.487058
vn 0.000000 -0.226045 0.974117
vn 0.000000 -0.226045 0.974117
vn 0.000000 -0.226045 0.974117
vn 0.000000 -0.226045 0.974117
vn 0.843610 -0.226045 0.487058
vn 0.843610 -0.226045 0.487058
vn 0.843610 -0.226045 0.487058
vn 0.843610 -0.226045 0.487058
vn 0.843610 -0.226044 -0.487058
vn 0.843610 -0.226044 -0.487058
vn 0.843610 -0.226044 -0.487058
vn 0.843610 -0.226044 -0.487058
vn 0.000000 0.226045 -0.974117
vn 0.000000 0.226045 -0.974117
vn 0.000000 0.226045 -0.974117
vn 0.000000 0.226045 -0.974117
vn -0.843610 0.226045 -0.487059
vn -0.843610 0.226045 -0.487059
vn -0.843610 0.226045 -0.487059
vn -0.843610 0.226045 -0.487059
vn -0.843610 0.226045 0.487058
vn -0.843610 0.226045 0.487058
vn -0.843610 0.226045 0.487058
vn -0.843610 0.226045 0.487058
vn 0.000000 0.226045 0.974117
vn 0.000000 0.226045 0.974117
vn 0.000000 0.226045 0.974117
vn 0.000000 0.226045 0.974117
vn 0.843610 0.226045 0.487058
vn 0.843610 0.226045 0.487058
vn 0.843610 0.226045 0.487058
vn 0.843610 0.226045 0.487058
vn 0.843610 0.226044 -0.487058
vn 0.843610 0.226044 -0.487058
vn 0.843610 0.226044 -0.487058
vn 0.843610 0.226044 -0.487058
vn 0.000000 0.654654 -0.755929
vn 0.000000 0.654654 -0.755929
vn 0.000000 0.654654 -0.755929
vn 0.000000 0.654654 -0.755929
vn -0.654654 0.654654 -0.377965
vn -0.654654 0.654654 -0.377965
vn -0.654654 0.654654 -0.377965
vn -0.654654 0.654654 -0.377965
vn -0.654654 0.654654 0.377964
vn -0.654654 0.654654 0.377964
vn -0.654654 0.654654 0.377964
vn -0.654654 0.654654 0.377964
vn 0.000000 0.654654 0.755929
vn 0.000000 0.654654 0.755929
vn 0.000000 0.654654 0.755929
vn 0.000000 0.654654 0.755929
vn 0.654654 0.654654 0.377965
vn 0.654654 0.654654 0.377965
vn 0.654654 0.654654 0.377965
vn 0.654654 0.654654 0.377964
vn 0.654654 0.654654 -0.377964
vn 0.654654 0.654654 -0.377964
vn 0.654654 0.654654 -0.377964
vn 0.654654 0.654654 -0.377964
vn 0.000000 -0.955319 -0.295577
vn 0.000000 -0.955319 -0.295577
vn 0.000000 -0.955319 -0.295577
vn -0.255977 -0.955319 -0.147789
vn -0.255977 -0.955319 -0.147789
vn -0.255977 -0.955319 -0.147789
vn -0.255977 -0.955319 0.147788
vn -0.255977 -0.955319 0.147788
vn -0.255977 -0.955319 0.147788
vn -0.000000 -0.955319 0.295577
vn -0.000000 -0.955319 0.295577
vn -0.000000 -0.955319 0.295577
vn 0.255977 -0.955319 0.147789
vn 0.255977 -0.955319 0.147789
vn 0.255977 -0.955319 0.147789
vn 0.255977 -0.955319 -0.147788
vn 0.255977 -0.955319 -0.147788
vn 0.255977 -0.955319 -0.147788
vn 0.000000 0.955319 -0.295577
vn 0.000000 0.955319 -0.295577
vn 0.000000 0.955319 -0.295577
vn -0.255977 0.955319 -0.147789
vn -0.255977 0.955319 -0.147789
vn -0.255977 0.955319 -0.147789
vn -0.255977 0.955319 0.147788
vn -0.255977 0.955319 0.147788
vn -0.255977 0.955319 0.147788
vn -0.000000 0.955319 0.295577
vn -0.000000 0.955319 0.295577
vn -0.000000 0.955319 0.295577
vn 0.255977 0.955319 0.147788
vn 0.255977 0.955319 0.147788
vn 0.255977 0.955319 0.147788
vn 0.255977 0.955319 -0.147788
vn 0.255977 0.955319 -0.147788
vn 0.255977 0.955319 -0.147788
s off
g polySurface1
usemtl set6
f 1/1/1 2/2/2 8/3/3 7/4/4
f 2/2/5 3/5/6 9/6/7 8/3/8
f 3/5/9 4/7/10 10/8/11 9/6/12
f 4/7/13 5/9/14 11/10/15 10/8/16
f 5/9/17 6/11/18 12/12/19 11/10/20
f 6/11/21 1/13/22 7/14/23 12/12/24
f 7/4/25 8/3/26 14/15/27 13/16/28
f 8/3/29 9/6/30 15/17/31 14/15/32
f 9/6/33 10/8/34 16/18/35 15/17/36
f 10/8/37 11/10/38 17/19/39 16/18/40
f 11/10/41 12/12/42 18/20/43 17/19/44
f 12/12/45 7/14/46 13/21/47 18/20/48
f 13/16/49 14/15/50 20/22/51 19/23/52
f 14/15/53 15/17/54 21/24/55 20/22/56
f 15/17/57 16/18/58 22/25/59 21/24/60
f 16/18/61 17/19/62 23/26/63 22/25/64
f 17/19/65 18/20/66 24/27/67 23/26/68
f 18/20/69 13/21/70 19/28/71 24/27/72
f 19/23/73 20/22/74 26/29/75 25/30/76
f 20/22/77 21/24/78 27/31/79 26/29/80
f 21/24/81 22/25/82 28/32/83 27/31/84
f 22/25/85 23/26/86 29/33/87 28/32/88
f 23/26/89 24/27/90 30/34/91 29/33/92
f 24/27/93 19/28/94 25/35/95 30/34/96
f 2/2/97 1/1/98 31/36/99
f 3/5/100 2/2/101 31/37/102
f 4/7/103 3/5/104 31/38/105
f 5/9/106 4/7/107 31/39/108
f 6/11/109 5/9/110 31/40/111
f 1/13/112 6/11/113 31/41/114
f 25/30/115 26/29/116 32/42/117
f 26/29/118 27/31/119 32/43/120
f 27/31/121 28/32/122 32/44/123
f 28/32/124 29/33/125 32/45/126
f 29/33/127 30/34/128 32/46/129
f 30/34/130 25/35/131 32/47/132
g default
v 0.232179 -0.804290 -0.402145
v -0.232178 -0.804290 -0.402145
v -0.464357 -0.804290 -0.000000
v -0.232179 -0.804290 0.402145
v 0.232179 -0.804290 0.402145
v 0.464357 -0.804290 -0.000000
v 0.402145 -0.464357 -0.696536
v -0.402145 -0.464357 -0.696536
v -0.804290 -0.464357 -0.000000
v -0.402145 -0.464357 0.696536
v 0.402145 -0.464357 0.696536
v 0.804290 -0.464357 -0.000000
v 0.464357 0.000000 -0.804290
v -0.464357 0.000000 -0.804290
v -0.928714 0.000000 -0.000000
v -0.464357 0.000000 0.804290
v 0.464357 0.000000 0.804290
v 0.928714 0.000000 -0.000000
v 0.402145 0.464357 -0.696536
v -0.402145 0.464357 -0.696536
v -0.804290 0.464357 -0.000000
v -0.402145 0.464357 0.696536
v 0.402145 0.464357 0.696536
v 0.804290 0.464357 -0.000000
v 0.232179 0.804290 -0.402145
v -0.232178 0.804290 -0.402145
v -0.464357 0.804290 -0.000000
v -0.232179 0.804290 0.402145
v 0.232179 0.804290 0.402145
v 0.464357 0.804290 -0.000000
v -0.000000 -0.928714 -0.000000
v -0.000000 0.928714 -0.000000
vt 0.598521 0.659290
vt 0.615406 0.578136
vt 0.689923 0.599405
vt 0.673584 0.717718
vt 0.608661 0.482221
vt 0.681998 0.487419
vt 0.596656 0.381535
vt 0.669427 0.379179
vt 0.584478 0.279423
vt 0.657306 0.269761
vt 0.571268 0.180395
vt 0.646469 0.154326
vt 0.545978 0.096187
vt 0.623383 0.026518
vt 0.768712 0.602406
vt 0.770428 0.741211
vt 0.758882 0.482674
vt 0.746125 0.371012
vt 0.733434 0.259347
vt 0.723796 0.139615
vt 0.722326 0.000840
vt 0.845984 0.587649
vt 0.869257 0.715440
vt 0.834997 0.472247
vt 0.822834 0.362877
vt 0.810344 0.254678
vt 0.802625 0.142723
vt 0.819220 0.024482
vt 0.921135 0.561582
vt 0.946525 0.645747
vt 0.907831 0.462633
vt 0.895632 0.360619
vt 0.883707 0.260025
vt 0.877143 0.164185
vt 0.894223 0.083117
vt 0.538045 0.598208
vt 0.540152 0.531956
vt 0.531341 0.441044
vt 0.519751 0.342938
vt 0.507904 0.246474
vt 0.492434 0.166384
vt 1.000000 0.575527
vt 0.984456 0.495556
vt 0.972564 0.399259
vt 0.961009 0.301331
vt 0.952313 0.210584
vt 0.954531 0.144390
vn 0.000000 -0.654654 -0.755929
vn 0.000000 -0.654654 -0.755929
vn 0.000000 -0.654654 -0.755929
vn 0.000000 -0.654654 -0.755929
vn -0.654654 -0.654654 -0.377965
vn -0.654654 -0.654654 -0.377965
vn -0.654654 -0.654654 -0.377965
vn -0.654654 -0.654654 -0.377965
vn -0.654654 -0.654654 0.377964
vn -0.654654 -0.654654 0.377964
vn -0.654654 -0.654654 0.377964
vn -0.654654 -0.654654 0.377964
vn 0.000000 -0.654654 0.755929
vn 0.000000 -0.654654 0.755929
vn 0.000000 -0.654654 0.755929
vn 0.000000 -0.654654 0.755929
vn 0.654654 -0.654654 0.377965
vn 0.654654 -0.654654 0.377965
vn 0.654654 -0.654654 0.377964
vn 0.654654 -0.654654 0.377964
vn 0.654654 -0.654654 -0.377964
vn 0.654654 -0.654654 -0.377964
vn 0.654654 -0.654654 -0.377964
vn 0.654654 -0.654654 -0.377964
vn 0.000000 -0.226045 -0.974117
vn 0.000000 -0.226045 -0.974117
vn 0.000000 -0.226045 -0.974117
vn 0.000000 -0.226045 -0.974117
vn -0.843610 -0.226045 -0.487059
vn -0.843610 -0.226045 -0.487059
vn -0.843610 -0.226045 -0.487059
vn -0.843610 -0.226045 -0.487059
vn -0.843610 -0.226045 0.487058
vn -0.843610 -0.226045 0.487058
vn -0.843610 -0.226045 0.487058
vn -0.843610 -0.226045 0.487058
vn -0.000000 -0.226045 0.974117
vn -0.000000 -0.226045 0.974117
vn -0.000000 -0.226045 0.974117
vn -0.000000 -0.226045 0.974117
vn 0.843610 -0.226044 0.487058
vn 0.843610 -0.226044 0.487058
vn 0.843610 -0.226044 0.487058
vn 0.843610 -0.226044 0.487058
vn 0.843610 -0.226044 -0.487058
vn 0.843610 -0.226044 -0.487058
vn 0.843610 -0.226044 -0.487058
vn 0.843610 -0.226044 -0.487058
vn 0.000000 0.226045 -0.974117
vn 0.000000 0.226045 -0.974117
vn 0.000000 0.226045 -0.974117
vn 0.000000 0.226045 -0.974117
vn -0.843610 0.226045 -0.487059
vn -0.843610 0.226045 -0.487059
vn -0.843610 0.226045 -0.487059
vn -0.843610 0.226045 -0.487059
vn -0.843610 0.226045 0.487058
vn -0.843610 0.226045 0.487058
vn -0.843610 0.226045 0.487058
vn -0.843610 0.226045 0.487058
vn -0.000000 0.226045 0.974117
vn -0.000000 0.226045 0.974117
vn -0.000000 0.226045 0.974117
vn -0.000000 0.226045 0.974117
vn 0.843610 0.226044 0.487058
vn 0.843610 0.226044 0.487058
vn 0.843610 0.226044 0.487058
vn 0.843610 0.226044 0.487058
vn 0.843610 0.226044 -0.487058
vn 0.843610 0.226044 -0.487058
vn 0.843610 0.226044 -0.487058
vn 0.843610 0.226044 -0.487058
vn 0.000000 0.654654 -0.755929
vn 0.000000 0.654654 -0.755929
vn 0.000000 0.654654 -0.755929
vn 0.000000 0.654654 -0.755929
vn -0.654654 0.654654 -0.377965
vn -0.654654 0.654654 -0.377965
vn -0.654654 0.654654 -0.377964
vn -0.654654 0.654654 -0.377964
vn -0.654654 0.654654 0.377964
vn -0.654654 0.654654 0.377964
vn -0.654654 0.654654 0.377964
vn -0.654654 0.654654 0.377964
vn 0.000000 0.654654 0.755929
vn 0.000000 0.654654 0.755929
vn 0.000000 0.654654 0.755929
vn 0.000000 0.654654 0.755929
vn 0.654654 0.654654 0.377965
vn 0.654654 0.654654 0.377965
vn 0.654654 0.654654 0.377964
vn 0.654654 0.654654 0.377964
vn 0.654654 0.654654 -0.377964
vn 0.654654 0.654654 -0.377964
vn 0.654654 0.654654 -0.377964
vn 0.654654 0.654654 -0.377964
vn 0.000000 -0.955319 -0.295577
vn 0.000000 -0.955319 -0.295577
vn 0.000000 -0.955319 -0.295577
vn -0.255977 -0.955319 -0.147788
vn -0.255977 -0.955319 -0.147788
vn -0.255977 -0.955319 -0.147788
vn -0.255977 -0.955319 0.147788
vn -0.255977 -0.955319 0.147788
vn -0.255977 -0.955319 0.147788
vn 0.000000 -0.955319 0.295577
vn 0.000000 -0.955319 0.295577
vn 0.000000 -0.955319 0.295577
vn 0.255977 -0.955319 0.147789
vn 0.255977 -0.955319 0.147789
vn 0.255977 -0.955319 0.147789
vn 0.255977 -0.955319 -0.147788
vn 0.255977 -0.955319 -0.147788
vn 0.255977 -0.955319 -0.147788
vn 0.000000 0.955319 -0.295577
vn 0.000000 0.955319 -0.295577
vn 0.000000 0.955319 -0.295577
vn -0.255977 0.955319 -0.147788
vn -0.255977 0.955319 -0.147788
vn -0.255977 0.955319 -0.147788
vn -0.255977 0.955319 0.147788
vn -0.255977 0.955319 0.147788
vn -0.255977 0.955319 0.147788
vn 0.000000 0.955319 0.295577
vn 0.000000 0.955319 0.295577
vn 0.000000 0.955319 0.295577
vn 0.255977 0.955319 0.147788
vn 0.255977 0.955319 0.147788
vn 0.255977 0.955319 0.147788
vn 0.255977 0.955319 -0.147788
vn 0.255977 0.955319 -0.147788
vn 0.255977 0.955319 -0.147788
s off
g polySurface2
usemtl set5
f 33/48/133 34/49/134 40/50/135 39/51/136
f 34/49/137 35/52/138 41/53/139 40/50/140
f 35/52/141 36/54/142 42/55/143 41/53/144
f 36/54/145 37/56/146 43/57/147 42/55/148
f 37/56/149 38/58/150 44/59/151 43/57/152
f 38/58/153 33/60/154 39/61/155 44/59/156
f 39/51/157 40/50/158 46/62/159 45/63/160
f 40/50/161 41/53/162 47/64/163 46/62/164
f 41/53/165 42/55/166 48/65/167 47/64/168
f 42/55/169 43/57/170 49/66/171 48/65/172
f 43/57/173 44/59/174 50/67/175 49/66/176
f 44/59/177 39/61/178 45/68/179 50/67/180
f 45/63/181 46/62/182 52/69/183 51/70/184
f 46/62/185 47/64/186 53/71/187 52/69/188
f 47/64/189 48/65/190 54/72/191 53/71/192
f 48/65/193 49/66/194 55/73/195 54/72/196
f 49/66/197 50/67/198 56/74/199 55/73/200
f 50/67/201 45/68/202 51/75/203 56/74/204
f 51/70/205 52/69/206 58/76/207 57/77/208
f 52/69/209 53/71/210 59/78/211 58/76/212
f 53/71/213 54/72/214 60/79/215 59/78/216
f 54/72/217 55/73/218 61/80/219 60/79/220
f 55/73/221 56/74/222 62/81/223 61/80/224
f 56/74/225 51/75/226 57/82/227 62/81/228
f 34/49/229 33/48/230 63/83/231
f 35/52/232 34/49/233 63/84/234
f 36/54/235 35/52/236 63/85/237
f 37/56/238 36/54/239 63/86/240
f 38/58/241 37/56/242 63/87/243
f 33/60/244 38/58/245 63/88/246
f 57/77/247 58/76/248 64/89/249
f 58/76/250 59/78/251 64/90/252
f 59/78/253 60/79/254 64/91/255
f 60/79/256 61/80/257 64/92/258
f 61/80/259 62/81/260 64/93/261
f 62/81/262 57/82/263 64/94/264
